<svg xmlns="http://www.w3.org/2000/svg" width="106" height="106" viewBox="0 0 106 106"><g fill="none"><path fill="#F1F1F1" d="M0,82.9975588 C0,94.1552659 9.61548484,106.14062 23.815202,105.998753 L82.8325758,105.998753 C95.6971212,105.998753 106,94.8844087 106,82.8112579 L106,23.2715443 C106,11.1871512 96.0520606,0 82.3523636,0 L23.2932323,0 C9.64278793,0 0,11.5313795 0,23.2715443 L0,82.9975588 Z"/><path fill="#AFE881" d="M64,0 L23.2241061,0 C9.6141715,0 0,11.6021937 0,23.414455 L0,32.9391343 L64,33 L64,0 Z"/><path fill="#A3CAFF" d="M72,106 L82.7138176,106 C95.644009,106 106,94.6758182 106,82.3747273 L106,82 L72.1006219,82 L72,106 Z"/><polygon fill="#FFF" points="0 42 0 32 106 32 106 42"/><polygon fill="#FFF" points="64 106 64 0 72 0 72 106"/><polygon fill="#FFDF48" points="0 83 0 70 106 70 106 83"/><polygon fill="#FFCF68" points="21 106 21 0 37 0 37 106"/><polygon fill="#D6D7D4" points="14 56 21.666 68 22 57.561"/><polygon fill="#E5BA5E" points="22 67.797 35.62 89.739 38 90 38 60.586 22 57"/><polygon fill="#E4C84A" points="40 82 62 82 47.169 76"/><polygon fill="#D6D7D4" points="38 89.214 64 92 63.935 82 38.032 82"/><polygon fill="#E7E7E8" points="63.068 91.99 73 93 63 82"/><polygon fill="#0066BD" points="92 19 33 68.515 35.188 89 41.424 72.674"/><polygon fill="#014E9D" points="40.493 72.224 35 89 48 76.742 43.579 69"/><polygon fill="#0093FD" points="14 55.282 33.005 68.452 92 19 40.4 72.14 73.139 93 92 19"/></g></svg>